<svg width="14" height="14" viewBox="0 0 14 14" fill="none" xmlns="http://www.w3.org/2000/svg">
<g clip-path="url(#clip0)">
<path d="M14 7.16076C14 6.68492 13.9606 6.2065 13.8767 5.73838H7.1404V8.43395H10.9979C10.8379 9.30333 10.3235 10.0724 9.57039 10.5611V12.3101H11.8718C13.2232 11.0909 14 9.29047 14 7.16076Z" fill="#4285F4"/>
<path d="M7.1404 14C9.06655 14 10.6909 13.3801 11.8744 12.3101L9.57301 10.5611C8.93271 10.9881 8.1061 11.2298 7.14302 11.2298C5.27985 11.2298 3.7001 9.9978 3.13327 8.34136H0.758392V10.1444C1.97076 12.5082 4.44012 14 7.1404 14V14Z" fill="#34A853"/>
<path d="M3.13074 8.34136C2.83158 7.47198 2.83158 6.53059 3.13074 5.66122V3.85817H0.758479C-0.254454 5.83612 -0.254454 8.16645 0.758479 10.1444L3.13074 8.34136V8.34136Z" fill="#FBBC04"/>
<path d="M7.1404 2.77001C8.15858 2.75458 9.14265 3.1301 9.88004 3.81943L11.919 1.8209C10.6279 0.632585 8.91434 -0.0207312 7.1404 -0.000154366C4.44012 -0.000154366 1.97076 1.49167 0.758392 3.85801L3.13065 5.66106C3.69485 4.00205 5.27723 2.77001 7.1404 2.77001V2.77001Z" fill="#EA4335"/>
</g>
<defs>
<clipPath id="clip0">
<rect width="14" height="14" fill="white"/>
</clipPath>
</defs>
</svg>
