<svg width="193" height="329" viewBox="0 0 193 329" fill="none" xmlns="http://www.w3.org/2000/svg">
<ellipse cx="96.4777" cy="311" rx="96.4777" ry="18" fill="#C4C4C4"/>
<path d="M125.962 186.667C125.962 207.789 120.289 226.866 111.169 240.633C102.044 254.408 89.5492 262.768 75.8863 262.768C62.2234 262.768 49.7288 254.408 40.6037 240.633C31.4837 226.866 25.8102 207.789 25.8102 186.667C25.8102 165.544 31.4837 146.467 40.6037 132.7C49.7288 118.925 62.2234 110.565 75.8863 110.565C89.5492 110.565 102.044 118.925 111.169 132.7C120.289 146.467 125.962 165.544 125.962 186.667Z" fill="#FFECA9" stroke="black" stroke-width="2"/>
<path d="M107.369 127.053C107.369 127.053 164.819 156.505 182.693 83.1884" stroke="black" stroke-width="2"/>
<path d="M192 65.942C192 70.8607 190.984 75.2641 189.389 78.4011C187.765 81.5932 185.704 83.2029 183.713 83.2029C181.723 83.2029 179.662 81.5932 178.038 78.4011C176.443 75.2641 175.427 70.8607 175.427 65.942C175.427 61.0234 176.443 56.6199 178.038 53.4829C179.662 50.2909 181.723 48.6812 183.713 48.6812C185.704 48.6812 187.765 50.2909 189.389 53.4829C190.984 56.6199 192 61.0234 192 65.942Z" fill="white" stroke="black" stroke-width="2"/>
<path d="M44.7188 127.353C12.4328 156.065 3.56856 176.571 3.17219 183.236L26.6854 210.676" stroke="black" stroke-width="2"/>
<path d="M59.4511 258C59.3828 278.994 58.1171 292.675 57.4928 296.891L52.7665 311.923" stroke="black" stroke-width="2"/>
<path d="M90.1157 259.644C90.2488 279.308 91.2286 292.178 91.7018 296.155L95.2178 310.451" stroke="black" stroke-width="2"/>
<path d="M31.0331 223.696C31.0331 227.639 30.2463 231.159 29.02 233.657C27.7617 236.219 26.2124 237.406 24.8102 237.406C23.4081 237.406 21.8588 236.219 20.6005 233.657C19.3742 231.159 18.5874 227.639 18.5874 223.696C18.5874 219.753 19.3742 216.232 20.6005 213.735C21.8588 211.172 23.4081 209.986 24.8102 209.986C26.2124 209.986 27.7617 211.172 29.02 213.735C30.2463 216.232 31.0331 219.753 31.0331 223.696Z" fill="white" stroke="black" stroke-width="2"/>
<path d="M140.408 61.8841C140.408 95.4636 111.799 122.768 76.4022 122.768C41.0058 122.768 12.3963 95.4636 12.3963 61.8841C12.3963 28.3045 41.0058 1 76.4022 1C111.799 1 140.408 28.3045 140.408 61.8841Z" fill="white" stroke="black" stroke-width="2"/>
<path d="M119.698 308.623C119.698 310.549 118.482 312.43 116.228 313.88C113.985 315.322 110.825 316.246 107.284 316.246C103.743 316.246 100.583 315.322 98.3398 313.88C96.0857 312.43 94.8702 310.549 94.8702 308.623C94.8702 306.698 96.0857 304.816 98.3398 303.367C100.583 301.925 103.743 301 107.284 301C110.825 301 113.985 301.925 116.228 303.367C118.482 304.816 119.698 306.698 119.698 308.623Z" fill="white" stroke="black" stroke-width="2"/>
<path d="M53.9889 308.623C53.9889 310.549 52.7733 312.43 50.5193 313.88C48.2759 315.322 45.1164 316.246 41.575 316.246C38.0336 316.246 34.874 315.322 32.6307 313.88C30.3766 312.43 29.1611 310.549 29.1611 308.623C29.1611 306.698 30.3766 304.816 32.6307 303.367C34.874 301.925 38.0336 301 41.575 301C45.1164 301 48.2759 301.925 50.5193 303.367C52.7733 304.816 53.9889 306.698 53.9889 308.623Z" fill="white" stroke="black" stroke-width="2"/>
<path d="M36.1605 58.8406C36.1605 58.8406 54.4559 31.4493 64.0201 58.8406" stroke="black" stroke-width="2"/>
<path d="M86.7206 57.8261C86.7206 57.8261 106.371 30.4348 116.644 57.8261" stroke="black" stroke-width="2"/>
<path d="M111.85 79.0532C111.85 79.0532 65.5259 107.13 41.3197 79.0367" stroke="black" stroke-width="2"/>
</svg>
