<svg width="232" height="329" viewBox="0 0 232 329" fill="none" xmlns="http://www.w3.org/2000/svg">
<ellipse cx="116" cy="311" rx="116" ry="18" fill="#C4C4C4"/>
<path d="M164.962 186.667C164.962 207.789 159.289 226.866 150.169 240.633C141.044 254.408 128.549 262.768 114.886 262.768C101.223 262.768 88.7289 254.408 79.6038 240.633C70.4837 226.866 64.8103 207.789 64.8103 186.667C64.8103 165.544 70.4837 146.467 79.6038 132.7C88.7289 118.925 101.223 110.565 114.886 110.565C128.549 110.565 141.044 118.925 150.169 132.7C159.289 146.467 164.962 165.544 164.962 186.667Z" fill="#FFECA9" stroke="black" stroke-width="2"/>
<path d="M145.369 126.053C145.369 126.053 202.819 155.505 220.693 82.1884" stroke="black" stroke-width="2"/>
<path d="M231 65.942C231 70.8607 229.984 75.2641 228.389 78.4011C226.765 81.5932 224.704 83.2029 222.714 83.2029C220.723 83.2029 218.662 81.5932 217.038 78.4011C215.443 75.2641 214.427 70.8607 214.427 65.942C214.427 61.0234 215.443 56.6199 217.038 53.4829C218.662 50.2909 220.723 48.6812 222.714 48.6812C224.704 48.6812 226.765 50.2909 228.389 53.4829C229.984 56.6199 231 61.0234 231 65.942Z" fill="white" stroke="black" stroke-width="2"/>
<path d="M84.6315 126.255C84.6315 126.255 27.1808 156.299 9.30725 81.5073" stroke="black" stroke-width="2"/>
<path d="M1 64.2609C1 69.1795 2.01602 73.583 3.61133 76.72C5.23465 79.912 7.29606 81.5217 9.28655 81.5217C11.277 81.5217 13.3384 79.912 14.9618 76.72C16.5571 73.583 17.5731 69.1795 17.5731 64.2609C17.5731 59.3422 16.5571 54.9388 14.9618 51.8018C13.3384 48.6097 11.277 47 9.28655 47C7.29606 47 5.23465 48.6097 3.61133 51.8018C2.01602 54.9388 1 59.3422 1 64.2609Z" fill="white" stroke="black" stroke-width="2"/>
<path d="M98.4512 258C98.3828 278.994 97.1172 292.675 96.4928 296.891L91.7666 311.923" stroke="black" stroke-width="2"/>
<path d="M129.116 259.644C129.249 279.308 130.229 292.178 130.702 296.155L134.218 310.451" stroke="black" stroke-width="2"/>
<path d="M179.408 61.8841C179.408 95.4636 150.799 122.768 115.402 122.768C80.0058 122.768 51.3964 95.4636 51.3964 61.8841C51.3964 28.3045 80.0058 1 115.402 1C150.799 1 179.408 28.3045 179.408 61.8841Z" fill="white" stroke="black" stroke-width="2"/>
<path d="M158.698 308.623C158.698 310.549 157.483 312.43 155.228 313.88C152.985 315.322 149.826 316.246 146.284 316.246C142.743 316.246 139.583 315.322 137.34 313.88C135.086 312.43 133.87 310.549 133.87 308.623C133.87 306.698 135.086 304.816 137.34 303.367C139.583 301.925 142.743 301 146.284 301C149.826 301 152.985 301.925 155.228 303.367C157.483 304.816 158.698 306.698 158.698 308.623Z" fill="white" stroke="black" stroke-width="2"/>
<path d="M92.9889 308.623C92.9889 310.549 91.7734 312.43 89.5193 313.88C87.2759 315.322 84.1164 316.246 80.575 316.246C77.0336 316.246 73.8741 315.322 71.6307 313.88C69.3766 312.43 68.1611 310.549 68.1611 308.623C68.1611 306.698 69.3766 304.816 71.6307 303.367C73.8741 301.925 77.0336 301 80.575 301C84.1164 301 87.2759 301.925 89.5193 303.367C91.7734 304.816 92.9889 306.698 92.9889 308.623Z" fill="white" stroke="black" stroke-width="2"/>
<path d="M75.1605 58.8406C75.1605 58.8406 93.4559 31.4493 103.02 58.8406" stroke="black" stroke-width="2"/>
<path d="M125.721 57.8261C125.721 57.8261 145.371 30.4348 155.644 57.8261" stroke="black" stroke-width="2"/>
<path d="M150.85 79.0532C150.85 79.0532 104.526 107.13 80.3197 79.0367" stroke="black" stroke-width="2"/>
</svg>
